<svg width="19" height="26" viewBox="0 0 19 26" fill="none" xmlns="http://www.w3.org/2000/svg">
<path d="M15.863 25.215H3.00675C1.34872 25.215 0 23.8663 0 22.2083V3.00675C0 1.34872 1.34872 0 3.00675 0H15.863C17.5211 0 18.8698 1.34872 18.8698 3.00675V7.12772C18.8698 7.43703 18.6188 7.68806 18.3095 7.68806C18.0002 7.68806 17.7491 7.43703 17.7491 7.12772V3.00675C17.7491 1.96677 16.903 1.12067 15.863 1.12067H3.00675C1.96677 1.12067 1.12067 1.96677 1.12067 3.00675V22.208C1.12067 23.248 1.96677 24.0941 3.00675 24.0941H15.863C16.903 24.0941 17.7491 23.2477 17.7491 22.208V18.0873C17.7491 17.778 18.0002 17.527 18.3095 17.527C18.6188 17.527 18.8698 17.778 18.8698 18.0873V22.2083C18.8698 23.8663 17.5211 25.215 15.863 25.215Z" fill="black"/>
</svg>
