<svg width="20" height="20" viewBox="0 0 20 20" fill="none" xmlns="http://www.w3.org/2000/svg">
<path d="M15 8.5C15 9.93437 14.5344 11.2594 13.75 12.3344L17.7062 16.2938C18.0969 16.6844 18.0969 17.3188 17.7062 17.7094C17.3156 18.1 16.6812 18.1 16.2906 17.7094L12.3344 13.75C11.2594 14.5344 9.93437 15 8.5 15C4.90937 15 2 12.0906 2 8.5C2 4.90937 4.90937 2 8.5 2C12.0906 2 15 4.90937 15 8.5ZM8.5 13C10.9844 13 13 10.9844 13 8.5C13 6.01562 10.9844 4 8.5 4C6.01562 4 4 6.01562 4 8.5C4 10.9844 6.01562 13 8.5 13Z" fill="black" fill-opacity="0.5"/>
</svg>
